<svg xmlns="http://www.w3.org/2000/svg">
<!--
  화면에서 쓰는 아이콘 모음. 화면에서는 이렇게 부른다.
    <svg class="icon"><use href="/static/icons/sprite.svg#i-home"></use></svg>
  선 굵기와 색은 화면 쪽 CSS(.icon)가 정한다. 24×24 칸에 맞춰 그렸다.
-->
<!-- 메뉴 -->
<symbol id="i-home" viewBox="0 0 24 24"><path d="M3 10.5 12 3l9 7.5V20a1 1 0 0 1-1 1h-5v-6H9v6H4a1 1 0 0 1-1-1z"/></symbol>
<symbol id="i-box" viewBox="0 0 24 24"><path d="M21 7.5 12 3 3 7.5v9L12 21l9-4.5z"/><path d="M3 7.5 12 12l9-4.5M12 12v9"/></symbol>
<symbol id="i-users" viewBox="0 0 24 24"><circle cx="9" cy="8" r="3.5"/><path d="M2.5 20c.8-3.5 3.4-5.5 6.5-5.5s5.7 2 6.5 5.5M16 4.6a3.5 3.5 0 0 1 0 6.8M18 14.8c1.8.8 3 2.5 3.5 5.2"/></symbol>
<symbol id="i-swap" viewBox="0 0 24 24"><path d="M4 8h15l-4-4M20 16H5l4 4"/></symbol>
<symbol id="i-wrench" viewBox="0 0 24 24"><path d="M14.5 3.5a5 5 0 0 0-4.3 7.3L3.5 17.5 6.5 20.5l6.7-6.7a5 5 0 0 0 7.3-4.3l-3 1.5-3-3z"/></symbol>
<symbol id="i-qr" viewBox="0 0 24 24"><rect x="3" y="3" width="7" height="7" rx="1"/><rect x="14" y="3" width="7" height="7" rx="1"/><rect x="3" y="14" width="7" height="7" rx="1"/><path d="M14 14h3v3h-3zM20 14v.01M20 20h-3M14 20v.01"/></symbol>
<symbol id="i-phone" viewBox="0 0 24 24"><rect x="6.5" y="2" width="11" height="20" rx="2"/><path d="M11 18h2"/></symbol>
<symbol id="i-upload" viewBox="0 0 24 24"><path d="M12 15V4M7 9l5-5 5 5M4 15v4a1 1 0 0 0 1 1h14a1 1 0 0 0 1-1v-4"/></symbol>
<symbol id="i-download" viewBox="0 0 24 24"><path d="M12 4v11M7 10l5 5 5-5M4 15v4a1 1 0 0 0 1 1h14a1 1 0 0 0 1-1v-4"/></symbol>
<symbol id="i-shield" viewBox="0 0 24 24"><path d="M12 3l8 3v6c0 4.5-3.4 8-8 9-4.6-1-8-4.5-8-9V6z"/></symbol>
<symbol id="i-hash" viewBox="0 0 24 24"><path d="M5 9h14M5 15h14M10 4 8 20M16 4l-2 16"/></symbol>
<symbol id="i-search" viewBox="0 0 24 24"><circle cx="11" cy="11" r="7"/><path d="m16.5 16.5 4.5 4.5"/></symbol>
<symbol id="i-menu" viewBox="0 0 24 24"><path d="M4 6h16M4 12h16M4 18h16"/></symbol>
<symbol id="i-close" viewBox="0 0 24 24"><path d="M6 6l12 12M18 6 6 18"/></symbol>
<symbol id="i-plus" viewBox="0 0 24 24"><path d="M12 5v14M5 12h14"/></symbol>
<symbol id="i-printer" viewBox="0 0 24 24"><path d="M7 9V3h10v6M7 17H4a1 1 0 0 1-1-1v-6a1 1 0 0 1 1-1h16a1 1 0 0 1 1 1v6a1 1 0 0 1-1 1h-3"/><path d="M7 14h10v7H7z"/></symbol>
<symbol id="i-lock" viewBox="0 0 24 24"><rect x="5" y="11" width="14" height="10" rx="2"/><path d="M8 11V7a4 4 0 0 1 8 0v4"/></symbol>
<symbol id="i-logout" viewBox="0 0 24 24"><path d="M15 4h4a1 1 0 0 1 1 1v14a1 1 0 0 1-1 1h-4M10 8l-4 4 4 4M6 12h10"/></symbol>
<symbol id="i-alert" viewBox="0 0 24 24"><path d="M12 3 2 20h20z"/><path d="M12 10v4M12 17h.01"/></symbol>
<symbol id="i-contrast" viewBox="0 0 24 24"><circle cx="12" cy="12" r="9"/><path d="M12 3v18a9 9 0 0 0 0-18z" fill="currentColor"/></symbol>
<symbol id="i-chevron" viewBox="0 0 24 24"><path d="m9 6 6 6-6 6"/></symbol>
<!-- 자산 분류 -->
<symbol id="i-laptop" viewBox="0 0 24 24"><rect x="4" y="5" width="16" height="11" rx="1"/><path d="M2 19h20"/></symbol>
<symbol id="i-desktop" viewBox="0 0 24 24"><rect x="7" y="3" width="10" height="18" rx="1"/><path d="M10 7h4M10 10h4M12 17h.01"/></symbol>
<symbol id="i-monitor" viewBox="0 0 24 24"><rect x="3" y="4" width="18" height="12" rx="1"/><path d="M8 20h8M12 16v4"/></symbol>
<symbol id="i-server" viewBox="0 0 24 24"><rect x="3" y="4" width="18" height="7" rx="1"/><rect x="3" y="13" width="18" height="7" rx="1"/><path d="M7 7.5h.01M7 16.5h.01"/></symbol>
<symbol id="i-network" viewBox="0 0 24 24"><circle cx="12" cy="5" r="2"/><circle cx="5" cy="19" r="2"/><circle cx="19" cy="19" r="2"/><path d="M12 7v5M5 17v-5h14v5"/></symbol>
<symbol id="i-keyboard" viewBox="0 0 24 24"><rect x="2" y="6" width="20" height="12" rx="2"/><path d="M6 10h.01M10 10h.01M14 10h.01M18 10h.01M7 14h10"/></symbol>
<symbol id="i-code" viewBox="0 0 24 24"><path d="m8 8-4 4 4 4M16 8l4 4-4 4M14 5l-4 14"/></symbol>
<symbol id="i-tag" viewBox="0 0 24 24"><path d="M3 12V4a1 1 0 0 1 1-1h8l9 9-9 9z"/><circle cx="7.5" cy="7.5" r="1"/></symbol>
</svg>
